<?xml version="1.0" encoding="iso-8859-1"?>
<!-- Generator: Adobe Illustrator 19.0.0, SVG Export Plug-In . SVG Version: 6.00 Build 0)  -->
<svg version="1.1" id="Capa_1" xmlns="http://www.w3.org/2000/svg" xmlns:xlink="http://www.w3.org/1999/xlink" x="0px" y="0px"
	 viewBox="0 0 480 480" style="enable-background:new 0 0 480 480;" xml:space="preserve">
<g>
	<g>
		<path d="M69.656,141.656l-11.312-11.312l-24,24c-3.128,3.128-3.128,8.184,0,11.312l24,24l11.312-11.312L51.312,160L69.656,141.656
			z"/>
	</g>
</g>
<g>
	<g>
		<path d="M157.656,154.344l-24-24l-11.312,11.312L140.688,160l-18.344,18.344l11.312,11.312l24-24
			C160.784,162.528,160.784,157.472,157.656,154.344z"/>
	</g>
</g>
<g>
	<g>
		<path d="M349.656,229.656l-11.312-11.312l-24,24c-3.128,3.128-3.128,8.184,0,11.312l24,24l11.312-11.312L331.312,248
			L349.656,229.656z"/>
	</g>
</g>
<g>
	<g>
		<path d="M445.656,242.344l-24-24l-11.312,11.312L428.688,248l-18.344,18.344l11.312,11.312l24-24
			C448.784,250.528,448.784,245.472,445.656,242.344z"/>
	</g>
</g>
<g>
	<g>
		<rect x="176" y="176" width="272" height="16"/>
	</g>
</g>
<g>
	<g>
		<rect x="32" y="256" width="264" height="16"/>
	</g>
</g>
<g>
	<g>
		
			<rect x="353.647" y="239.973" transform="matrix(0.4382 -0.8989 0.8989 0.4382 -9.2325 481.1671)" width="53.329" height="15.992"/>
	</g>
</g>
<g>
	<g>
		<path d="M69.656,301.656l-11.312-11.312l-24,24c-3.128,3.128-3.128,8.184,0,11.312l24,24l11.312-11.312L51.312,320L69.656,301.656
			z"/>
	</g>
</g>
<g>
	<g>
		<path d="M157.656,314.344l-24-24l-11.312,11.312L140.688,320l-18.344,18.344l11.312,11.312l24-24
			C160.784,322.528,160.784,317.472,157.656,314.344z"/>
	</g>
</g>
<g>
	<g>
		<path d="M349.656,389.656l-11.312-11.312l-24,24c-3.128,3.128-3.128,8.184,0,11.312l24,24l11.312-11.312L331.312,408
			L349.656,389.656z"/>
	</g>
</g>
<g>
	<g>
		<path d="M445.656,402.344l-24-24l-11.312,11.312L428.688,408l-18.344,18.344l11.312,11.312l24-24
			C448.784,410.528,448.784,405.472,445.656,402.344z"/>
	</g>
</g>
<g>
	<g>
		<rect x="176" y="336" width="272" height="16"/>
	</g>
</g>
<g>
	<g>
		<rect x="32" y="416" width="264" height="16"/>
	</g>
</g>
<g>
	<g>
		
			<rect x="353.639" y="400.005" transform="matrix(0.4382 -0.8989 0.8989 0.4382 -153.0868 571.0674)" width="53.329" height="15.992"/>
	</g>
</g>
<g>
	<g>
		<path d="M472,0H112c-2.216,0-4.216,0.896-5.664,2.352L2.352,106.336C0.896,107.784,0,109.784,0,112v360c0,4.416,3.576,8,8,8h464
			c4.424,0,8-3.584,8-8V8C480,3.584,476.424,0,472,0z M104,27.312V104H27.312L104,27.312z M464,464H16V120h96c4.424,0,8-3.584,8-8
			V16h344V464z"/>
	</g>
</g>
<g>
</g>
<g>
</g>
<g>
</g>
<g>
</g>
<g>
</g>
<g>
</g>
<g>
</g>
<g>
</g>
<g>
</g>
<g>
</g>
<g>
</g>
<g>
</g>
<g>
</g>
<g>
</g>
<g>
</g>
</svg>
